<svg width="38" height="40" viewBox="0 0 38 40" fill="none" xmlns="http://www.w3.org/2000/svg">
<path fill-rule="evenodd" clip-rule="evenodd" d="M6.18434 1.80356C6.47033 1.51226 6.93401 1.51226 7.21999 1.80356L9.23386 3.85484C9.51985 4.14614 9.51985 4.61843 9.23386 4.90973L7.21999 6.96101C6.93401 7.25231 6.47033 7.25231 6.18434 6.96101C5.89835 6.66971 5.89835 6.19742 6.18434 5.90612L6.94807 5.1282H2.3998C1.99536 5.1282 1.66749 4.79424 1.66749 4.38228C1.66749 3.97032 1.99536 3.63636 2.3998 3.63636H6.94807L6.18434 2.85845C5.89835 2.56715 5.89835 2.09486 6.18434 1.80356ZM28.4886 5.22145C28.4886 4.80948 28.8165 4.47552 29.2209 4.47552C34.6418 4.47552 37.7191 8.53863 37.8822 12.6036C37.9637 14.6343 37.3213 16.6921 35.8651 18.2453C34.6895 19.4993 33.0233 20.3826 30.8797 20.6813L31.5695 21.384C31.8555 21.6753 31.8555 22.1476 31.5695 22.4389C31.2835 22.7302 30.8199 22.7302 30.5339 22.4389L28.7031 20.5741C28.4171 20.2828 28.4171 19.8105 28.7031 19.5192L30.5339 17.6544C30.8199 17.3631 31.2835 17.3631 31.5695 17.6544C31.8555 17.9457 31.8555 18.418 31.5695 18.7093L31.163 19.1234C32.7734 18.8101 33.9698 18.1069 34.8059 17.215C35.9557 15.9885 36.4861 14.3401 36.4188 12.6645C36.2845 9.31684 33.7778 5.96737 29.2209 5.96737C28.8165 5.96737 28.4886 5.63341 28.4886 5.22145ZM35.048 32.4795C35.334 32.7708 35.334 33.2431 35.048 33.5344L31.5695 37.0776C31.2835 37.3689 30.8199 37.3689 30.5339 37.0776L28.7031 35.2128C28.4171 34.9215 28.4171 34.4492 28.7031 34.1579C28.9891 33.8666 29.4528 33.8666 29.7387 34.1579L31.0517 35.4952L34.0124 32.4795C34.2984 32.1882 34.7621 32.1882 35.048 32.4795Z" fill="#65953D"/>
<path fill-rule="evenodd" clip-rule="evenodd" d="M9.60154 19.9534C9.60154 19.5414 9.27367 19.2075 8.86923 19.2075C3.39914 19.2075 0.283573 23.2627 0.118279 27.3352C0.0357475 29.3685 0.686545 31.4275 2.15877 32.9803C3.34718 34.2337 5.0309 35.1159 7.19695 35.4138L6.50283 36.113C6.21524 36.4026 6.21263 36.8749 6.49701 37.1678C6.78138 37.4608 7.24505 37.4634 7.53265 37.1738L9.38413 35.309C9.52325 35.1688 9.60154 34.9778 9.60154 34.7786C9.60154 34.5793 9.52325 34.3883 9.38413 34.2482L7.53265 32.3834C7.24505 32.0937 6.78138 32.0963 6.49701 32.3893C6.21263 32.6822 6.21524 33.1545 6.50283 33.4442L6.91276 33.857C5.27602 33.5443 4.06064 32.8387 3.21232 31.944C2.04907 30.717 1.51376 29.0697 1.58166 27.3968C1.71724 24.0566 4.24871 20.6993 8.86923 20.6993C9.27367 20.6993 9.60154 20.3653 9.60154 19.9534Z" fill="#65953D"/>
<path d="M13.293 0C12.6863 0 12.1945 0.500939 12.1945 1.11888V9.13753C12.1945 9.75547 12.6863 10.2564 13.293 10.2564H24.827C25.4337 10.2564 25.9255 9.75547 25.9255 9.13753V1.11888C25.9255 0.500939 25.4337 0 24.827 0H13.293Z" fill="#65953D"/>
<path fill-rule="evenodd" clip-rule="evenodd" d="M14.6661 3.44988C14.6661 3.03792 14.994 2.70396 15.3984 2.70396H22.2639C22.6683 2.70396 22.9962 3.03792 22.9962 3.44988C22.9962 3.86184 22.6683 4.1958 22.2639 4.1958H15.3984C14.994 4.1958 14.6661 3.86184 14.6661 3.44988ZM14.6661 6.99301C14.6661 6.58105 14.994 6.24709 15.3984 6.24709H20.8908C21.2953 6.24709 21.6231 6.58105 21.6231 6.99301C21.6231 7.40497 21.2953 7.73893 20.8908 7.73893H15.3984C14.994 7.73893 14.6661 7.40497 14.6661 6.99301Z" fill="white"/>
<path d="M13.293 14.9184C12.6863 14.9184 12.1945 15.4194 12.1945 16.0373V24.0559C12.1945 24.6739 12.6863 25.1748 13.293 25.1748H24.827C25.4337 25.1748 25.9255 24.6739 25.9255 24.0559V16.0373C25.9255 15.4194 25.4337 14.9184 24.827 14.9184H13.293Z" fill="#65953D"/>
<path fill-rule="evenodd" clip-rule="evenodd" d="M14.6661 18.3683C14.6661 17.9563 14.994 17.6224 15.3984 17.6224H22.2639C22.6683 17.6224 22.9962 17.9563 22.9962 18.3683C22.9962 18.7803 22.6683 19.1142 22.2639 19.1142H15.3984C14.994 19.1142 14.6661 18.7803 14.6661 18.3683ZM14.6661 21.9114C14.6661 21.4995 14.994 21.1655 15.3984 21.1655H20.8908C21.2953 21.1655 21.6231 21.4995 21.6231 21.9114C21.6231 22.3234 21.2953 22.6573 20.8908 22.6573H15.3984C14.994 22.6573 14.6661 22.3234 14.6661 21.9114Z" fill="white"/>
<path d="M13.293 29.7436C12.6863 29.7436 12.1945 30.2445 12.1945 30.8625V38.8811C12.1945 39.4991 12.6863 40 13.293 40H24.827C25.4337 40 25.9255 39.4991 25.9255 38.8811V30.8625C25.9255 30.2445 25.4337 29.7436 24.827 29.7436H13.293Z" fill="#65953D"/>
<path fill-rule="evenodd" clip-rule="evenodd" d="M14.6661 33.1935C14.6661 32.7815 14.994 32.4476 15.3984 32.4476H22.2639C22.6683 32.4476 22.9962 32.7815 22.9962 33.1935C22.9962 33.6054 22.6683 33.9394 22.2639 33.9394H15.3984C14.994 33.9394 14.6661 33.6054 14.6661 33.1935ZM14.6661 36.7366C14.6661 36.3246 14.994 35.9907 15.3984 35.9907H20.8908C21.2953 35.9907 21.6231 36.3246 21.6231 36.7366C21.6231 37.1486 21.2953 37.4825 20.8908 37.4825H15.3984C14.994 37.4825 14.6661 37.1486 14.6661 36.7366Z" fill="white"/>
</svg>
